<svg width="40" height="40" viewBox="0 0 40 40" fill="none" xmlns="http://www.w3.org/2000/svg">
<path d="M0 8C0 3.58172 3.58172 0 8 0H32C36.4183 0 40 3.58172 40 8V32C40 36.4183 36.4183 40 32 40H8C3.58172 40 0 36.4183 0 32V8Z" fill="#10B981" fill-opacity="0.2"/>
<path d="M29.8011 18C30.2578 20.2413 29.9323 22.5714 28.879 24.6018C27.8256 26.6322 26.108 28.2401 24.0126 29.1573C21.9172 30.0746 19.5707 30.2458 17.3644 29.6424C15.1581 29.039 13.2253 27.6974 11.8884 25.8414C10.5515 23.9854 9.89122 21.7272 10.0178 19.4434C10.1443 17.1595 11.05 14.9881 12.5838 13.2912C14.1175 11.5943 16.1867 10.4744 18.4462 10.1185C20.7056 9.76248 23.0189 10.1919 25.0001 11.335" stroke="#10B981" stroke-width="2" stroke-linecap="round" stroke-linejoin="round"/>
<path d="M17 19L20 22L30 12" stroke="#10B981" stroke-width="2" stroke-linecap="round" stroke-linejoin="round"/>
</svg>
