<svg width="38" height="38" viewBox="0 0 38 38" fill="none" xmlns="http://www.w3.org/2000/svg">
<mask id="path-1-inside-1_12_321" fill="white">
<path d="M0 8C0 3.58172 3.58172 0 8 0H30C34.4183 0 38 3.58172 38 8V30C38 34.4183 34.4183 38 30 38H8C3.58172 38 0 34.4183 0 30V8Z"/>
</mask>
<path d="M0 8C0 3.58172 3.58172 0 8 0H30C34.4183 0 38 3.58172 38 8V30C38 34.4183 34.4183 38 30 38H8C3.58172 38 0 34.4183 0 30V8Z" fill="#10B981" fill-opacity="0.1"/>
<path d="M8 0V1H30V0V-1H8V0ZM38 8H37V30H38H39V8H38ZM30 38V37H8V38V39H30V38ZM0 30H1V8H0H-1V30H0ZM8 38V37C4.13401 37 1 33.866 1 30H0H-1C-1 34.9706 3.02944 39 8 39V38ZM38 30H37C37 33.866 33.866 37 30 37V38V39C34.9706 39 39 34.9706 39 30H38ZM30 0V1C33.866 1 37 4.13401 37 8H38H39C39 3.02944 34.9706 -1 30 -1V0ZM8 0V-1C3.02944 -1 -1 3.02944 -1 8H0H1C1 4.13401 4.13401 1 8 1V0Z" fill="#10B981" fill-opacity="0.2" mask="url(#path-1-inside-1_12_321)"/>
<path d="M13.9999 27.3333C13.5579 27.3333 13.134 27.1577 12.8214 26.8452C12.5088 26.5326 12.3333 26.1087 12.3333 25.6667V12.3333C12.3333 11.8913 12.5088 11.4674 12.8214 11.1548C13.134 10.8423 13.5579 10.6667 13.9999 10.6667H20.6666C20.9304 10.6662 21.1917 10.718 21.4354 10.819C21.6791 10.9199 21.9004 11.0681 22.0866 11.255L25.0766 14.245C25.264 14.4312 25.4126 14.6528 25.5138 14.8968C25.6151 15.1408 25.667 15.4025 25.6666 15.6667V25.6667C25.6666 26.1087 25.491 26.5326 25.1784 26.8452C24.8659 27.1577 24.4419 27.3333 23.9999 27.3333H13.9999Z" stroke="#10B981" stroke-width="1.66667" stroke-linecap="round" stroke-linejoin="round"/>
<path d="M20.6667 10.6667V14.8333C20.6667 15.0543 20.7545 15.2663 20.9108 15.4226C21.0671 15.5789 21.2791 15.6667 21.5001 15.6667H25.6667" stroke="#10B981" stroke-width="1.66667" stroke-linecap="round" stroke-linejoin="round"/>
<path d="M17.3334 19.4167L15.6667 21.5L17.3334 23.5833" stroke="#10B981" stroke-width="1.66667" stroke-linecap="round" stroke-linejoin="round"/>
<path d="M20.6667 19.4167L22.3334 21.5L20.6667 23.5833" stroke="#10B981" stroke-width="1.66667" stroke-linecap="round" stroke-linejoin="round"/>
</svg>
