<svg width="21" height="21" viewBox="0 0 21 21" fill="none" xmlns="http://www.w3.org/2000/svg">
<path d="M8.56443 0.791748C7.02714 0.791748 5.52437 1.24761 4.24616 2.10168C2.96795 2.95575 1.97171 4.16968 1.38341 5.58995C0.795116 7.01022 0.641191 8.57305 0.941101 10.0808C1.24101 11.5886 1.98129 12.9735 3.06832 14.0605C4.15535 15.1476 5.54031 15.8879 7.04806 16.1878C8.55581 16.4877 10.1186 16.3337 11.5389 15.7455C12.9592 15.1572 14.1731 14.1609 15.0272 12.8827C15.8813 11.6045 16.3371 10.1017 16.3371 8.56443C16.337 6.50303 15.518 4.52609 14.0604 3.06846C12.6028 1.61083 10.6258 0.791879 8.56443 0.791748Z" stroke="#7E7D7D" stroke-width="1.58333" stroke-miterlimit="10"/>
<path d="M14.3633 14.3633L19.7916 19.7916" stroke="#7E7D7D" stroke-width="1.58333" stroke-miterlimit="10" stroke-linecap="round"/>
</svg>
